# xmcd
#
# Track frame offsets:
#	150
#	18187
#	38167
#	52455
#	75360
#	92935
#	115704
#	136785
#	154852
#	172450
#	191670
#
# Disc length: 2820 seconds
# Revision: 2
# Processed by: cddbd v1.5.2PL0 Copyright (c) Steve Scherf et al.
# Submitted via: dBpowerAMP V12.0
#
DISCID=900b020b
DTITLE=Denise LaSalle - Still Bad
DYEAR=1994
DGENRE=Soul
TTITLE0=Right Side of The Wrong Bed
TTITLE1=Soft-Hearted Woman
TTITLE2=Three People
TTITLE3=No Supervision
TTITLE4=Child of The Ghetto
TTITLE5=Dial 1-900-Get-Some
TTITLE6=Risky Business
TTITLE7=The Sweeter The Man
TTITLE8=It Ain't Over Til The Fat Lady Sings
TTITLE9=A Woman Needs to be Loved
TTITLE10=The Bitch is Bad
EXTD=
EXTT0=
EXTT1=
EXTT2=
EXTT3=
EXTT4=
EXTT5=
EXTT6=
EXTT7=
EXTT8=
EXTT9=
EXTT10=
PLAYORDER=
